<?xml version="1.0" encoding="UTF-8" standalone="no"?>
<!DOCTYPE svg PUBLIC "-//W3C//DTD SVG 1.1//EN"
 "http://www.w3.org/Graphics/SVG/1.1/DTD/svg11.dtd">
<!-- Generated by graphviz version 5.0.0 (20220707.1540)
 -->
<!-- Title: dependencies Pages: 1 -->
<svg width="426pt" height="239pt"
 viewBox="0.00 0.00 426.00 238.80" xmlns="http://www.w3.org/2000/svg" xmlns:xlink="http://www.w3.org/1999/xlink">
<g id="graph0" class="graph" transform="scale(1 1) rotate(0) translate(4 234.8)">
<title>dependencies</title>
<polygon fill="white" stroke="transparent" points="-4,4 -4,-234.8 422,-234.8 422,4 -4,4"/>
<text text-anchor="middle" x="209" y="-8.2" font-family="sans-serif" font-size="14.00">dependencies</text>
<g id="clust1" class="cluster">
<title>cluster_LoginModule</title>
<polygon fill="none" stroke="black" stroke-dasharray="1,5" points="8,-32.8 8,-222.8 410,-222.8 410,-32.8 8,-32.8"/>
</g>
<g id="clust2" class="cluster">
<title>cluster_LoginModule_declarations</title>
<polygon fill="none" stroke="black" points="126,-105.8 126,-157.8 402,-157.8 402,-105.8 126,-105.8"/>
</g>
<g id="clust3" class="cluster">
<title>cluster_LoginModule_LoginComponent_providers</title>
<polygon fill="none" stroke="black" points="260,-40.8 260,-92.8 402,-92.8 402,-40.8 260,-40.8"/>
</g>
<g id="clust5" class="cluster">
<title>cluster_LoginModule_imports</title>
<polygon fill="none" stroke="black" points="16,-105.8 16,-157.8 118,-157.8 118,-105.8 16,-105.8"/>
</g>
<!-- LoginComponent -->
<g id="node1" class="node">
<title>LoginComponent</title>
<polygon fill="#ffffb3" stroke="black" points="394.27,-149.8 279.73,-149.8 279.73,-113.8 394.27,-113.8 394.27,-149.8"/>
<text text-anchor="middle" x="337" y="-127.6" font-family="Times,serif" font-size="14.00">LoginComponent</text>
</g>
<!-- LoginModule -->
<g id="node3" class="node">
<title>LoginModule</title>
<polygon fill="#8dd3c7" stroke="black" points="244.49,-214.8 241.49,-218.8 220.49,-218.8 217.49,-214.8 151.51,-214.8 151.51,-178.8 244.49,-178.8 244.49,-214.8"/>
<text text-anchor="middle" x="198" y="-192.6" font-family="Times,serif" font-size="14.00">LoginModule</text>
</g>
<!-- LoginComponent&#45;&gt;LoginModule -->
<g id="edge1" class="edge">
<title>LoginComponent&#45;&gt;LoginModule</title>
<path fill="none" stroke="black" d="M337,-149.91C337,-169.14 337,-196.8 337,-196.8 337,-196.8 254.67,-196.8 254.67,-196.8"/>
<polygon fill="black" stroke="black" points="254.67,-193.3 244.67,-196.8 254.67,-200.3 254.67,-193.3"/>
</g>
<!-- RegisterComponent -->
<g id="node2" class="node">
<title>RegisterComponent</title>
<polygon fill="#ffffb3" stroke="black" points="261.99,-149.8 134.01,-149.8 134.01,-113.8 261.99,-113.8 261.99,-149.8"/>
<text text-anchor="middle" x="198" y="-127.6" font-family="Times,serif" font-size="14.00">RegisterComponent</text>
</g>
<!-- RegisterComponent&#45;&gt;LoginModule -->
<g id="edge3" class="edge">
<title>RegisterComponent&#45;&gt;LoginModule</title>
<path fill="none" stroke="black" d="M198,-149.91C198,-149.91 198,-168.79 198,-168.79"/>
<polygon fill="black" stroke="black" points="194.5,-168.79 198,-178.79 201.5,-168.79 194.5,-168.79"/>
</g>
<!-- LoginService -->
<g id="node4" class="node">
<title>LoginService</title>
<ellipse fill="#fdb462" stroke="black" cx="331" cy="-66.8" rx="63.12" ry="18"/>
<text text-anchor="middle" x="331" y="-62.6" font-family="Times,serif" font-size="14.00">LoginService</text>
</g>
<!-- LoginService&#45;&gt;LoginComponent -->
<g id="edge2" class="edge">
<title>LoginService&#45;&gt;LoginComponent</title>
<path fill="none" stroke="black" d="M336.84,-84.91C336.84,-84.91 336.84,-103.79 336.84,-103.79"/>
<polygon fill="black" stroke="black" points="333.34,-103.79 336.84,-113.79 340.34,-103.79 333.34,-103.79"/>
</g>
<!-- I18nModule -->
<g id="node5" class="node">
<title>I18nModule</title>
<polygon fill="#8dd3c7" stroke="black" points="109.71,-149.8 106.71,-153.8 85.71,-153.8 82.71,-149.8 24.29,-149.8 24.29,-113.8 109.71,-113.8 109.71,-149.8"/>
<text text-anchor="middle" x="67" y="-127.6" font-family="Times,serif" font-size="14.00">I18nModule</text>
</g>
<!-- I18nModule&#45;&gt;LoginModule -->
<g id="edge4" class="edge">
<title>I18nModule&#45;&gt;LoginModule</title>
<path fill="none" stroke="black" d="M67,-149.91C67,-169.14 67,-196.8 67,-196.8 67,-196.8 141.45,-196.8 141.45,-196.8"/>
<polygon fill="black" stroke="black" points="141.45,-200.3 151.45,-196.8 141.45,-193.3 141.45,-200.3"/>
</g>
</g>
</svg>
