<?xml version="1.0" encoding="UTF-8" standalone="no"?>
<!DOCTYPE svg PUBLIC "-//W3C//DTD SVG 1.1//EN"
 "http://www.w3.org/Graphics/SVG/1.1/DTD/svg11.dtd">
<!-- Generated by graphviz version 5.0.0 (20220707.1540)
 -->
<!-- Title: dependencies Pages: 1 -->
<svg width="2439pt" height="247pt"
 viewBox="0.00 0.00 2439.00 246.80" xmlns="http://www.w3.org/2000/svg" xmlns:xlink="http://www.w3.org/1999/xlink">
<g id="graph0" class="graph" transform="scale(1 1) rotate(0) translate(4 242.8)">
<title>dependencies</title>
<polygon fill="white" stroke="transparent" points="-4,4 -4,-242.8 2435,-242.8 2435,4 -4,4"/>
<text text-anchor="middle" x="1215.5" y="-8.2" font-family="sans-serif" font-size="14.00">dependencies</text>
<g id="clust1" class="cluster">
<title>cluster_AppModule</title>
<polygon fill="none" stroke="black" stroke-dasharray="1,5" points="8,-32.8 8,-230.8 2423,-230.8 2423,-32.8 8,-32.8"/>
</g>
<g id="clust2" class="cluster">
<title>cluster_AppModule_declarations</title>
<polygon fill="none" stroke="black" points="576,-40.8 576,-92.8 2415,-92.8 2415,-40.8 576,-40.8"/>
</g>
<g id="clust18" class="cluster">
<title>cluster_AppModule_providers</title>
<polygon fill="none" stroke="black" points="382,-40.8 382,-92.8 568,-92.8 568,-40.8 382,-40.8"/>
</g>
<g id="clust17" class="cluster">
<title>cluster_AppModule_bootstrap</title>
<polygon fill="none" stroke="black" points="1255,-170.8 1255,-222.8 1379,-222.8 1379,-170.8 1255,-170.8"/>
</g>
<g id="clust16" class="cluster">
<title>cluster_AppModule_exports</title>
<polygon fill="none" stroke="black" points="1099,-170.8 1099,-222.8 1247,-222.8 1247,-170.8 1099,-170.8"/>
</g>
<g id="clust15" class="cluster">
<title>cluster_AppModule_imports</title>
<polygon fill="none" stroke="black" points="16,-40.8 16,-92.8 374,-92.8 374,-40.8 16,-40.8"/>
</g>
<!-- AdminComponent -->
<g id="node1" class="node">
<title>AdminComponent</title>
<polygon fill="#ffffb3" stroke="black" points="2407.22,-84.8 2286.78,-84.8 2286.78,-48.8 2407.22,-48.8 2407.22,-84.8"/>
<text text-anchor="middle" x="2347" y="-62.6" font-family="Times,serif" font-size="14.00">AdminComponent</text>
</g>
<!-- AppModule -->
<g id="node13" class="node">
<title>AppModule</title>
<polygon fill="#8dd3c7" stroke="black" points="1286.66,-149.8 1283.66,-153.8 1262.66,-153.8 1259.66,-149.8 1203.34,-149.8 1203.34,-113.8 1286.66,-113.8 1286.66,-149.8"/>
<text text-anchor="middle" x="1245" y="-127.6" font-family="Times,serif" font-size="14.00">AppModule</text>
</g>
<!-- AdminComponent&#45;&gt;AppModule -->
<g id="edge1" class="edge">
<title>AdminComponent&#45;&gt;AppModule</title>
<path fill="none" stroke="black" d="M2347,-85.12C2347,-108.46 2347,-145.8 2347,-145.8 2347,-145.8 1296.85,-145.8 1296.85,-145.8"/>
<polygon fill="black" stroke="black" points="1296.85,-142.3 1286.85,-145.8 1296.85,-149.3 1296.85,-142.3"/>
</g>
<!-- AdminProfileComponent -->
<g id="node2" class="node">
<title>AdminProfileComponent</title>
<polygon fill="#ffffb3" stroke="black" points="2269.32,-84.8 2110.68,-84.8 2110.68,-48.8 2269.32,-48.8 2269.32,-84.8"/>
<text text-anchor="middle" x="2190" y="-62.6" font-family="Times,serif" font-size="14.00">AdminProfileComponent</text>
</g>
<!-- AdminProfileComponent&#45;&gt;AppModule -->
<g id="edge2" class="edge">
<title>AdminProfileComponent&#45;&gt;AppModule</title>
<path fill="none" stroke="black" d="M2190,-85.09C2190,-107.01 2190,-140.8 2190,-140.8 2190,-140.8 1296.82,-140.8 1296.82,-140.8"/>
<polygon fill="black" stroke="black" points="1296.82,-137.3 1286.82,-140.8 1296.82,-144.3 1296.82,-137.3"/>
</g>
<!-- AppComponent -->
<g id="node3" class="node">
<title>AppComponent</title>
<polygon fill="#ffffb3" stroke="black" points="2092.94,-84.8 1987.06,-84.8 1987.06,-48.8 2092.94,-48.8 2092.94,-84.8"/>
<text text-anchor="middle" x="2040" y="-62.6" font-family="Times,serif" font-size="14.00">AppComponent</text>
</g>
<!-- AppComponent&#45;&gt;AppModule -->
<g id="edge3" class="edge">
<title>AppComponent&#45;&gt;AppModule</title>
<path fill="none" stroke="black" d="M2040,-84.83C2040,-105.57 2040,-136.8 2040,-136.8 2040,-136.8 1296.9,-136.8 1296.9,-136.8"/>
<polygon fill="black" stroke="black" points="1296.9,-133.3 1286.9,-136.8 1296.9,-140.3 1296.9,-133.3"/>
</g>
<!-- BookComponent -->
<g id="node4" class="node">
<title>BookComponent</title>
<polygon fill="#ffffb3" stroke="black" points="1968.67,-84.8 1857.33,-84.8 1857.33,-48.8 1968.67,-48.8 1968.67,-84.8"/>
<text text-anchor="middle" x="1913" y="-62.6" font-family="Times,serif" font-size="14.00">BookComponent</text>
</g>
<!-- BookComponent&#45;&gt;AppModule -->
<g id="edge4" class="edge">
<title>BookComponent&#45;&gt;AppModule</title>
<path fill="none" stroke="black" d="M1913,-84.91C1913,-104.14 1913,-131.8 1913,-131.8 1913,-131.8 1296.79,-131.8 1296.79,-131.8"/>
<polygon fill="black" stroke="black" points="1296.79,-128.3 1286.79,-131.8 1296.79,-135.3 1296.79,-128.3"/>
</g>
<!-- ChatComponent -->
<g id="node5" class="node">
<title>ChatComponent</title>
<polygon fill="#ffffb3" stroke="black" points="1838.77,-84.8 1731.23,-84.8 1731.23,-48.8 1838.77,-48.8 1838.77,-84.8"/>
<text text-anchor="middle" x="1785" y="-62.6" font-family="Times,serif" font-size="14.00">ChatComponent</text>
</g>
<!-- ChatComponent&#45;&gt;AppModule -->
<g id="edge5" class="edge">
<title>ChatComponent&#45;&gt;AppModule</title>
<path fill="none" stroke="black" d="M1785,-85.1C1785,-103.07 1785,-127.8 1785,-127.8 1785,-127.8 1296.92,-127.8 1296.92,-127.8"/>
<polygon fill="black" stroke="black" points="1296.92,-124.3 1286.92,-127.8 1296.92,-131.3 1296.92,-124.3"/>
</g>
<!-- ContactComponent -->
<g id="node6" class="node">
<title>ContactComponent</title>
<polygon fill="#ffffb3" stroke="black" points="1713.38,-84.8 1588.62,-84.8 1588.62,-48.8 1713.38,-48.8 1713.38,-84.8"/>
<text text-anchor="middle" x="1651" y="-62.6" font-family="Times,serif" font-size="14.00">ContactComponent</text>
</g>
<!-- ContactComponent&#45;&gt;AppModule -->
<g id="edge6" class="edge">
<title>ContactComponent&#45;&gt;AppModule</title>
<path fill="none" stroke="black" d="M1651,-84.83C1651,-101.2 1651,-122.8 1651,-122.8 1651,-122.8 1296.92,-122.8 1296.92,-122.8"/>
<polygon fill="black" stroke="black" points="1296.92,-119.3 1286.92,-122.8 1296.92,-126.3 1296.92,-119.3"/>
</g>
<!-- ProfileEditComponent -->
<g id="node7" class="node">
<title>ProfileEditComponent</title>
<polygon fill="#ffffb3" stroke="black" points="1570.27,-84.8 1427.73,-84.8 1427.73,-48.8 1570.27,-48.8 1570.27,-84.8"/>
<text text-anchor="middle" x="1499" y="-62.6" font-family="Times,serif" font-size="14.00">ProfileEditComponent</text>
</g>
<!-- ProfileEditComponent&#45;&gt;AppModule -->
<g id="edge7" class="edge">
<title>ProfileEditComponent&#45;&gt;AppModule</title>
<path fill="none" stroke="black" d="M1499,-84.99C1499,-99.98 1499,-118.8 1499,-118.8 1499,-118.8 1296.94,-118.8 1296.94,-118.8"/>
<polygon fill="black" stroke="black" points="1296.94,-115.3 1286.94,-118.8 1296.94,-122.3 1296.94,-115.3"/>
</g>
<!-- ReserveBookComponent -->
<g id="node8" class="node">
<title>ReserveBookComponent</title>
<polygon fill="#ffffb3" stroke="black" points="1409.26,-84.8 1252.74,-84.8 1252.74,-48.8 1409.26,-48.8 1409.26,-84.8"/>
<text text-anchor="middle" x="1331" y="-62.6" font-family="Times,serif" font-size="14.00">ReserveBookComponent</text>
</g>
<!-- ReserveBookComponent&#45;&gt;AppModule -->
<g id="edge8" class="edge">
<title>ReserveBookComponent&#45;&gt;AppModule</title>
<path fill="none" stroke="black" d="M1269.73,-84.91C1269.73,-84.91 1269.73,-103.79 1269.73,-103.79"/>
<polygon fill="black" stroke="black" points="1266.23,-103.79 1269.73,-113.79 1273.23,-103.79 1266.23,-103.79"/>
</g>
<!-- SearchBookComponent -->
<g id="node9" class="node">
<title>SearchBookComponent</title>
<polygon fill="#ffffb3" stroke="black" points="1234.76,-84.8 1085.24,-84.8 1085.24,-48.8 1234.76,-48.8 1234.76,-84.8"/>
<text text-anchor="middle" x="1160" y="-62.6" font-family="Times,serif" font-size="14.00">SearchBookComponent</text>
</g>
<!-- SearchBookComponent&#45;&gt;AppModule -->
<g id="edge9" class="edge">
<title>SearchBookComponent&#45;&gt;AppModule</title>
<path fill="none" stroke="black" d="M1219.02,-84.91C1219.02,-84.91 1219.02,-103.79 1219.02,-103.79"/>
<polygon fill="black" stroke="black" points="1215.52,-103.79 1219.02,-113.79 1222.52,-103.79 1215.52,-103.79"/>
</g>
<!-- SelectLanguageComponent -->
<g id="node10" class="node">
<title>SelectLanguageComponent</title>
<polygon fill="#ffffb3" stroke="black" points="1067.23,-84.8 896.77,-84.8 896.77,-48.8 1067.23,-48.8 1067.23,-84.8"/>
<text text-anchor="middle" x="982" y="-62.6" font-family="Times,serif" font-size="14.00">SelectLanguageComponent</text>
</g>
<!-- SelectLanguageComponent&#45;&gt;AppModule -->
<g id="edge10" class="edge">
<title>SelectLanguageComponent&#45;&gt;AppModule</title>
<path fill="none" stroke="black" d="M982,-84.99C982,-99.98 982,-118.8 982,-118.8 982,-118.8 1193.33,-118.8 1193.33,-118.8"/>
<polygon fill="black" stroke="black" points="1193.33,-122.3 1203.33,-118.8 1193.33,-115.3 1193.33,-122.3"/>
</g>
<!-- UserInfoComponent -->
<g id="node11" class="node">
<title>UserInfoComponent</title>
<polygon fill="#ffffb3" stroke="black" points="878.59,-84.8 747.41,-84.8 747.41,-48.8 878.59,-48.8 878.59,-84.8"/>
<text text-anchor="middle" x="813" y="-62.6" font-family="Times,serif" font-size="14.00">UserInfoComponent</text>
</g>
<!-- UserInfoComponent&#45;&gt;AppModule -->
<g id="edge11" class="edge">
<title>UserInfoComponent&#45;&gt;AppModule</title>
<path fill="none" stroke="black" d="M813,-84.83C813,-101.2 813,-122.8 813,-122.8 813,-122.8 1193.19,-122.8 1193.19,-122.8"/>
<polygon fill="black" stroke="black" points="1193.19,-126.3 1203.19,-122.8 1193.19,-119.3 1193.19,-126.3"/>
</g>
<!-- UserProfileComponent -->
<g id="node12" class="node">
<title>UserProfileComponent</title>
<polygon fill="#ffffb3" stroke="black" points="729.87,-84.8 584.13,-84.8 584.13,-48.8 729.87,-48.8 729.87,-84.8"/>
<text text-anchor="middle" x="657" y="-62.6" font-family="Times,serif" font-size="14.00">UserProfileComponent</text>
</g>
<!-- UserProfileComponent&#45;&gt;AppModule -->
<g id="edge12" class="edge">
<title>UserProfileComponent&#45;&gt;AppModule</title>
<path fill="none" stroke="black" d="M657,-85.1C657,-103.07 657,-127.8 657,-127.8 657,-127.8 1193.18,-127.8 1193.18,-127.8"/>
<polygon fill="black" stroke="black" points="1193.18,-131.3 1203.18,-127.8 1193.18,-124.3 1193.18,-131.3"/>
</g>
<!-- AppRoutingModule  -->
<g id="node17" class="node">
<title>AppRoutingModule </title>
<polygon fill="#fb8072" stroke="black" points="1239.28,-214.8 1106.72,-214.8 1106.72,-178.8 1239.28,-178.8 1239.28,-214.8"/>
<text text-anchor="middle" x="1173" y="-192.6" font-family="Times,serif" font-size="14.00">AppRoutingModule </text>
</g>
<!-- AppModule&#45;&gt;AppRoutingModule  -->
<g id="edge16" class="edge">
<title>AppModule&#45;&gt;AppRoutingModule </title>
<path fill="none" stroke="black" stroke-dasharray="5,2" d="M1221.15,-149.91C1221.15,-149.91 1221.15,-168.79 1221.15,-168.79"/>
<polygon fill="black" stroke="black" points="1217.65,-168.79 1221.15,-178.79 1224.65,-168.79 1217.65,-168.79"/>
</g>
<!-- AppComponent  -->
<g id="node18" class="node">
<title>AppComponent </title>
<polygon fill="#80b1d3" stroke="black" points="1371.44,-214.8 1262.56,-214.8 1262.56,-178.8 1371.44,-178.8 1371.44,-214.8"/>
<text text-anchor="middle" x="1317" y="-192.6" font-family="Times,serif" font-size="14.00">AppComponent </text>
</g>
<!-- AppModule&#45;&gt;AppComponent  -->
<g id="edge17" class="edge">
<title>AppModule&#45;&gt;AppComponent </title>
<path fill="none" stroke="black" stroke-dasharray="1,5" d="M1274.68,-149.91C1274.68,-149.91 1274.68,-168.79 1274.68,-168.79"/>
<polygon fill="black" stroke="black" points="1271.18,-168.79 1274.68,-178.79 1278.18,-168.79 1271.18,-168.79"/>
</g>
<!-- AppRoutingModule -->
<g id="node14" class="node">
<title>AppRoutingModule</title>
<polygon fill="#8dd3c7" stroke="black" points="366.28,-84.8 363.28,-88.8 342.28,-88.8 339.28,-84.8 237.72,-84.8 237.72,-48.8 366.28,-48.8 366.28,-84.8"/>
<text text-anchor="middle" x="302" y="-62.6" font-family="Times,serif" font-size="14.00">AppRoutingModule</text>
</g>
<!-- AppRoutingModule&#45;&gt;AppModule -->
<g id="edge13" class="edge">
<title>AppRoutingModule&#45;&gt;AppModule</title>
<path fill="none" stroke="black" d="M302,-84.83C302,-105.57 302,-136.8 302,-136.8 302,-136.8 1193.26,-136.8 1193.26,-136.8"/>
<polygon fill="black" stroke="black" points="1193.26,-140.3 1203.26,-136.8 1193.26,-133.3 1193.26,-140.3"/>
</g>
<!-- I18nModule -->
<g id="node15" class="node">
<title>I18nModule</title>
<polygon fill="#8dd3c7" stroke="black" points="219.71,-84.8 216.71,-88.8 195.71,-88.8 192.71,-84.8 134.29,-84.8 134.29,-48.8 219.71,-48.8 219.71,-84.8"/>
<text text-anchor="middle" x="177" y="-62.6" font-family="Times,serif" font-size="14.00">I18nModule</text>
</g>
<!-- I18nModule&#45;&gt;AppModule -->
<g id="edge14" class="edge">
<title>I18nModule&#45;&gt;AppModule</title>
<path fill="none" stroke="black" d="M177,-85.09C177,-107.01 177,-140.8 177,-140.8 177,-140.8 1193.13,-140.8 1193.13,-140.8"/>
<polygon fill="black" stroke="black" points="1193.13,-144.3 1203.13,-140.8 1193.13,-137.3 1193.13,-144.3"/>
</g>
<!-- LoginModule -->
<g id="node16" class="node">
<title>LoginModule</title>
<polygon fill="#8dd3c7" stroke="black" points="116.49,-84.8 113.49,-88.8 92.49,-88.8 89.49,-84.8 23.51,-84.8 23.51,-48.8 116.49,-48.8 116.49,-84.8"/>
<text text-anchor="middle" x="70" y="-62.6" font-family="Times,serif" font-size="14.00">LoginModule</text>
</g>
<!-- LoginModule&#45;&gt;AppModule -->
<g id="edge15" class="edge">
<title>LoginModule&#45;&gt;AppModule</title>
<path fill="none" stroke="black" d="M70,-85.12C70,-108.46 70,-145.8 70,-145.8 70,-145.8 1193.18,-145.8 1193.18,-145.8"/>
<polygon fill="black" stroke="black" points="1193.18,-149.3 1203.18,-145.8 1193.18,-142.3 1193.18,-149.3"/>
</g>
<!-- WebSocketService -->
<g id="node19" class="node">
<title>WebSocketService</title>
<ellipse fill="#fdb462" stroke="black" cx="475" cy="-66.8" rx="84.51" ry="18"/>
<text text-anchor="middle" x="475" y="-62.6" font-family="Times,serif" font-size="14.00">WebSocketService</text>
</g>
<!-- WebSocketService&#45;&gt;AppModule -->
<g id="edge18" class="edge">
<title>WebSocketService&#45;&gt;AppModule</title>
<path fill="none" stroke="black" d="M475,-84.91C475,-104.14 475,-131.8 475,-131.8 475,-131.8 1193.33,-131.8 1193.33,-131.8"/>
<polygon fill="black" stroke="black" points="1193.33,-135.3 1203.33,-131.8 1193.33,-128.3 1193.33,-135.3"/>
</g>
</g>
</svg>
