<?xml version="1.0" encoding="UTF-8" standalone="no"?>
<!DOCTYPE svg PUBLIC "-//W3C//DTD SVG 1.1//EN"
 "http://www.w3.org/Graphics/SVG/1.1/DTD/svg11.dtd">
<!-- Generated by graphviz version 5.0.0 (20220707.1540)
 -->
<!-- Title: dependencies Pages: 1 -->
<svg width="2629pt" height="383pt"
 viewBox="0.00 0.00 2629.00 382.80" xmlns="http://www.w3.org/2000/svg" xmlns:xlink="http://www.w3.org/1999/xlink">
<g id="graph0" class="graph" transform="scale(1 1) rotate(0) translate(4 378.8)">
<title>dependencies</title>
<polygon fill="white" stroke="transparent" points="-4,4 -4,-378.8 2625,-378.8 2625,4 -4,4"/>
<text text-anchor="middle" x="1310.5" y="-8.2" font-family="sans-serif" font-size="14.00">dependencies</text>
<g id="clust1" class="cluster">
<title>cluster_AppModule</title>
<polygon fill="none" stroke="black" stroke-dasharray="1,5" points="8,-100.8 8,-366.8 2313,-366.8 2313,-100.8 8,-100.8"/>
</g>
<g id="clust2" class="cluster">
<title>cluster_AppModule_declarations</title>
<polygon fill="none" stroke="black" points="466,-176.8 466,-228.8 2305,-228.8 2305,-176.8 466,-176.8"/>
</g>
<g id="clust15" class="cluster">
<title>cluster_AppModule_imports</title>
<polygon fill="none" stroke="black" points="210,-108.8 210,-228.8 458,-228.8 458,-108.8 210,-108.8"/>
</g>
<g id="clust16" class="cluster">
<title>cluster_AppModule_exports</title>
<polygon fill="none" stroke="black" points="989,-306.8 989,-358.8 1137,-358.8 1137,-306.8 989,-306.8"/>
</g>
<g id="clust17" class="cluster">
<title>cluster_AppModule_bootstrap</title>
<polygon fill="none" stroke="black" points="1145,-306.8 1145,-358.8 1269,-358.8 1269,-306.8 1145,-306.8"/>
</g>
<g id="clust18" class="cluster">
<title>cluster_AppModule_providers</title>
<polygon fill="none" stroke="black" points="16,-176.8 16,-228.8 202,-228.8 202,-176.8 16,-176.8"/>
</g>
<g id="clust31" class="cluster">
<title>cluster_LoginModule</title>
<polygon fill="none" stroke="black" stroke-dasharray="1,5" points="2321,-32.8 2321,-168.8 2613,-168.8 2613,-32.8 2321,-32.8"/>
</g>
<g id="clust32" class="cluster">
<title>cluster_LoginModule_declarations</title>
<polygon fill="none" stroke="black" points="2329,-108.8 2329,-160.8 2605,-160.8 2605,-108.8 2329,-108.8"/>
</g>
<g id="clust33" class="cluster">
<title>cluster_LoginModule_LoginComponent_providers</title>
<polygon fill="none" stroke="black" points="2463,-40.8 2463,-92.8 2605,-92.8 2605,-40.8 2463,-40.8"/>
</g>
<!-- AdminComponent -->
<g id="node1" class="node">
<title>AdminComponent</title>
<polygon fill="#ffffb3" stroke="black" points="2297.22,-220.8 2176.78,-220.8 2176.78,-184.8 2297.22,-184.8 2297.22,-220.8"/>
<text text-anchor="middle" x="2237" y="-198.6" font-family="Times,serif" font-size="14.00">AdminComponent</text>
</g>
<!-- AppModule -->
<g id="node13" class="node">
<title>AppModule</title>
<polygon fill="#8dd3c7" stroke="black" points="1176.66,-285.8 1173.66,-289.8 1152.66,-289.8 1149.66,-285.8 1093.34,-285.8 1093.34,-249.8 1176.66,-249.8 1176.66,-285.8"/>
<text text-anchor="middle" x="1135" y="-263.6" font-family="Times,serif" font-size="14.00">AppModule</text>
</g>
<!-- AdminComponent&#45;&gt;AppModule -->
<g id="edge1" class="edge">
<title>AdminComponent&#45;&gt;AppModule</title>
<path fill="none" stroke="black" d="M2237,-221.12C2237,-244.46 2237,-281.8 2237,-281.8 2237,-281.8 1186.85,-281.8 1186.85,-281.8"/>
<polygon fill="black" stroke="black" points="1186.85,-278.3 1176.85,-281.8 1186.85,-285.3 1186.85,-278.3"/>
</g>
<!-- AdminProfileComponent -->
<g id="node2" class="node">
<title>AdminProfileComponent</title>
<polygon fill="#ffffb3" stroke="black" points="2159.32,-220.8 2000.68,-220.8 2000.68,-184.8 2159.32,-184.8 2159.32,-220.8"/>
<text text-anchor="middle" x="2080" y="-198.6" font-family="Times,serif" font-size="14.00">AdminProfileComponent</text>
</g>
<!-- AdminProfileComponent&#45;&gt;AppModule -->
<g id="edge2" class="edge">
<title>AdminProfileComponent&#45;&gt;AppModule</title>
<path fill="none" stroke="black" d="M2080,-221.09C2080,-243.01 2080,-276.8 2080,-276.8 2080,-276.8 1186.82,-276.8 1186.82,-276.8"/>
<polygon fill="black" stroke="black" points="1186.82,-273.3 1176.82,-276.8 1186.82,-280.3 1186.82,-273.3"/>
</g>
<!-- AppComponent -->
<g id="node3" class="node">
<title>AppComponent</title>
<polygon fill="#ffffb3" stroke="black" points="1982.94,-220.8 1877.06,-220.8 1877.06,-184.8 1982.94,-184.8 1982.94,-220.8"/>
<text text-anchor="middle" x="1930" y="-198.6" font-family="Times,serif" font-size="14.00">AppComponent</text>
</g>
<!-- AppComponent&#45;&gt;AppModule -->
<g id="edge3" class="edge">
<title>AppComponent&#45;&gt;AppModule</title>
<path fill="none" stroke="black" d="M1930,-220.83C1930,-241.57 1930,-272.8 1930,-272.8 1930,-272.8 1186.9,-272.8 1186.9,-272.8"/>
<polygon fill="black" stroke="black" points="1186.9,-269.3 1176.9,-272.8 1186.9,-276.3 1186.9,-269.3"/>
</g>
<!-- BookComponent -->
<g id="node4" class="node">
<title>BookComponent</title>
<polygon fill="#ffffb3" stroke="black" points="1858.67,-220.8 1747.33,-220.8 1747.33,-184.8 1858.67,-184.8 1858.67,-220.8"/>
<text text-anchor="middle" x="1803" y="-198.6" font-family="Times,serif" font-size="14.00">BookComponent</text>
</g>
<!-- BookComponent&#45;&gt;AppModule -->
<g id="edge4" class="edge">
<title>BookComponent&#45;&gt;AppModule</title>
<path fill="none" stroke="black" d="M1803,-220.91C1803,-240.14 1803,-267.8 1803,-267.8 1803,-267.8 1186.79,-267.8 1186.79,-267.8"/>
<polygon fill="black" stroke="black" points="1186.79,-264.3 1176.79,-267.8 1186.79,-271.3 1186.79,-264.3"/>
</g>
<!-- ChatComponent -->
<g id="node5" class="node">
<title>ChatComponent</title>
<polygon fill="#ffffb3" stroke="black" points="1728.77,-220.8 1621.23,-220.8 1621.23,-184.8 1728.77,-184.8 1728.77,-220.8"/>
<text text-anchor="middle" x="1675" y="-198.6" font-family="Times,serif" font-size="14.00">ChatComponent</text>
</g>
<!-- ChatComponent&#45;&gt;AppModule -->
<g id="edge5" class="edge">
<title>ChatComponent&#45;&gt;AppModule</title>
<path fill="none" stroke="black" d="M1675,-221.1C1675,-239.07 1675,-263.8 1675,-263.8 1675,-263.8 1186.92,-263.8 1186.92,-263.8"/>
<polygon fill="black" stroke="black" points="1186.92,-260.3 1176.92,-263.8 1186.92,-267.3 1186.92,-260.3"/>
</g>
<!-- ContactComponent -->
<g id="node6" class="node">
<title>ContactComponent</title>
<polygon fill="#ffffb3" stroke="black" points="1603.38,-220.8 1478.62,-220.8 1478.62,-184.8 1603.38,-184.8 1603.38,-220.8"/>
<text text-anchor="middle" x="1541" y="-198.6" font-family="Times,serif" font-size="14.00">ContactComponent</text>
</g>
<!-- ContactComponent&#45;&gt;AppModule -->
<g id="edge6" class="edge">
<title>ContactComponent&#45;&gt;AppModule</title>
<path fill="none" stroke="black" d="M1541,-220.83C1541,-237.2 1541,-258.8 1541,-258.8 1541,-258.8 1186.92,-258.8 1186.92,-258.8"/>
<polygon fill="black" stroke="black" points="1186.92,-255.3 1176.92,-258.8 1186.92,-262.3 1186.92,-255.3"/>
</g>
<!-- ProfileEditComponent -->
<g id="node7" class="node">
<title>ProfileEditComponent</title>
<polygon fill="#ffffb3" stroke="black" points="1460.27,-220.8 1317.73,-220.8 1317.73,-184.8 1460.27,-184.8 1460.27,-220.8"/>
<text text-anchor="middle" x="1389" y="-198.6" font-family="Times,serif" font-size="14.00">ProfileEditComponent</text>
</g>
<!-- ProfileEditComponent&#45;&gt;AppModule -->
<g id="edge7" class="edge">
<title>ProfileEditComponent&#45;&gt;AppModule</title>
<path fill="none" stroke="black" d="M1389,-220.99C1389,-235.98 1389,-254.8 1389,-254.8 1389,-254.8 1186.94,-254.8 1186.94,-254.8"/>
<polygon fill="black" stroke="black" points="1186.94,-251.3 1176.94,-254.8 1186.94,-258.3 1186.94,-251.3"/>
</g>
<!-- ReserveBookComponent -->
<g id="node8" class="node">
<title>ReserveBookComponent</title>
<polygon fill="#ffffb3" stroke="black" points="1299.26,-220.8 1142.74,-220.8 1142.74,-184.8 1299.26,-184.8 1299.26,-220.8"/>
<text text-anchor="middle" x="1221" y="-198.6" font-family="Times,serif" font-size="14.00">ReserveBookComponent</text>
</g>
<!-- ReserveBookComponent&#45;&gt;AppModule -->
<g id="edge8" class="edge">
<title>ReserveBookComponent&#45;&gt;AppModule</title>
<path fill="none" stroke="black" d="M1159.73,-220.91C1159.73,-220.91 1159.73,-239.79 1159.73,-239.79"/>
<polygon fill="black" stroke="black" points="1156.23,-239.79 1159.73,-249.79 1163.23,-239.79 1156.23,-239.79"/>
</g>
<!-- SearchBookComponent -->
<g id="node9" class="node">
<title>SearchBookComponent</title>
<polygon fill="#ffffb3" stroke="black" points="1124.76,-220.8 975.24,-220.8 975.24,-184.8 1124.76,-184.8 1124.76,-220.8"/>
<text text-anchor="middle" x="1050" y="-198.6" font-family="Times,serif" font-size="14.00">SearchBookComponent</text>
</g>
<!-- SearchBookComponent&#45;&gt;AppModule -->
<g id="edge9" class="edge">
<title>SearchBookComponent&#45;&gt;AppModule</title>
<path fill="none" stroke="black" d="M1109.02,-220.91C1109.02,-220.91 1109.02,-239.79 1109.02,-239.79"/>
<polygon fill="black" stroke="black" points="1105.52,-239.79 1109.02,-249.79 1112.52,-239.79 1105.52,-239.79"/>
</g>
<!-- SelectLanguageComponent -->
<g id="node10" class="node">
<title>SelectLanguageComponent</title>
<polygon fill="#ffffb3" stroke="black" points="957.23,-220.8 786.77,-220.8 786.77,-184.8 957.23,-184.8 957.23,-220.8"/>
<text text-anchor="middle" x="872" y="-198.6" font-family="Times,serif" font-size="14.00">SelectLanguageComponent</text>
</g>
<!-- SelectLanguageComponent&#45;&gt;AppModule -->
<g id="edge10" class="edge">
<title>SelectLanguageComponent&#45;&gt;AppModule</title>
<path fill="none" stroke="black" d="M872,-221.04C872,-236.37 872,-255.8 872,-255.8 872,-255.8 1083.33,-255.8 1083.33,-255.8"/>
<polygon fill="black" stroke="black" points="1083.33,-259.3 1093.33,-255.8 1083.33,-252.3 1083.33,-259.3"/>
</g>
<!-- UserInfoComponent -->
<g id="node11" class="node">
<title>UserInfoComponent</title>
<polygon fill="#ffffb3" stroke="black" points="768.59,-220.8 637.41,-220.8 637.41,-184.8 768.59,-184.8 768.59,-220.8"/>
<text text-anchor="middle" x="703" y="-198.6" font-family="Times,serif" font-size="14.00">UserInfoComponent</text>
</g>
<!-- UserInfoComponent&#45;&gt;AppModule -->
<g id="edge11" class="edge">
<title>UserInfoComponent&#45;&gt;AppModule</title>
<path fill="none" stroke="black" d="M703,-220.83C703,-237.86 703,-260.8 703,-260.8 703,-260.8 1083.19,-260.8 1083.19,-260.8"/>
<polygon fill="black" stroke="black" points="1083.19,-264.3 1093.19,-260.8 1083.19,-257.3 1083.19,-264.3"/>
</g>
<!-- UserProfileComponent -->
<g id="node12" class="node">
<title>UserProfileComponent</title>
<polygon fill="#ffffb3" stroke="black" points="619.87,-220.8 474.13,-220.8 474.13,-184.8 619.87,-184.8 619.87,-220.8"/>
<text text-anchor="middle" x="547" y="-198.6" font-family="Times,serif" font-size="14.00">UserProfileComponent</text>
</g>
<!-- UserProfileComponent&#45;&gt;AppModule -->
<g id="edge12" class="edge">
<title>UserProfileComponent&#45;&gt;AppModule</title>
<path fill="none" stroke="black" d="M547,-221.02C547,-239.63 547,-265.8 547,-265.8 547,-265.8 1083.18,-265.8 1083.18,-265.8"/>
<polygon fill="black" stroke="black" points="1083.18,-269.3 1093.18,-265.8 1083.18,-262.3 1083.18,-269.3"/>
</g>
<!-- AppRoutingModule  -->
<g id="node17" class="node">
<title>AppRoutingModule </title>
<polygon fill="#fb8072" stroke="black" points="1129.28,-350.8 996.72,-350.8 996.72,-314.8 1129.28,-314.8 1129.28,-350.8"/>
<text text-anchor="middle" x="1063" y="-328.6" font-family="Times,serif" font-size="14.00">AppRoutingModule </text>
</g>
<!-- AppModule&#45;&gt;AppRoutingModule  -->
<g id="edge16" class="edge">
<title>AppModule&#45;&gt;AppRoutingModule </title>
<path fill="none" stroke="black" stroke-dasharray="5,2" d="M1111.15,-285.91C1111.15,-285.91 1111.15,-304.79 1111.15,-304.79"/>
<polygon fill="black" stroke="black" points="1107.65,-304.79 1111.15,-314.79 1114.65,-304.79 1107.65,-304.79"/>
</g>
<!-- AppComponent  -->
<g id="node18" class="node">
<title>AppComponent </title>
<polygon fill="#80b1d3" stroke="black" points="1261.44,-350.8 1152.56,-350.8 1152.56,-314.8 1261.44,-314.8 1261.44,-350.8"/>
<text text-anchor="middle" x="1207" y="-328.6" font-family="Times,serif" font-size="14.00">AppComponent </text>
</g>
<!-- AppModule&#45;&gt;AppComponent  -->
<g id="edge17" class="edge">
<title>AppModule&#45;&gt;AppComponent </title>
<path fill="none" stroke="black" stroke-dasharray="1,5" d="M1164.68,-285.91C1164.68,-285.91 1164.68,-304.79 1164.68,-304.79"/>
<polygon fill="black" stroke="black" points="1161.18,-304.79 1164.68,-314.79 1168.18,-304.79 1161.18,-304.79"/>
</g>
<!-- AppRoutingModule -->
<g id="node14" class="node">
<title>AppRoutingModule</title>
<polygon fill="#8dd3c7" stroke="black" points="346.28,-152.8 343.28,-156.8 322.28,-156.8 319.28,-152.8 217.72,-152.8 217.72,-116.8 346.28,-116.8 346.28,-152.8"/>
<text text-anchor="middle" x="282" y="-130.6" font-family="Times,serif" font-size="14.00">AppRoutingModule</text>
</g>
<!-- AppRoutingModule&#45;&gt;AppModule -->
<g id="edge13" class="edge">
<title>AppRoutingModule&#45;&gt;AppModule</title>
<path fill="none" stroke="black" d="M282,-152.94C282,-191.03 282,-275.8 282,-275.8 282,-275.8 1083.28,-275.8 1083.28,-275.8"/>
<polygon fill="black" stroke="black" points="1083.28,-279.3 1093.28,-275.8 1083.28,-272.3 1083.28,-279.3"/>
</g>
<!-- I18nModule -->
<g id="node15" class="node">
<title>I18nModule</title>
<polygon fill="#8dd3c7" stroke="black" points="449.71,-152.8 446.71,-156.8 425.71,-156.8 422.71,-152.8 364.29,-152.8 364.29,-116.8 449.71,-116.8 449.71,-152.8"/>
<text text-anchor="middle" x="407" y="-130.6" font-family="Times,serif" font-size="14.00">I18nModule</text>
</g>
<!-- I18nModule&#45;&gt;AppModule -->
<g id="edge14" class="edge">
<title>I18nModule&#45;&gt;AppModule</title>
<path fill="none" stroke="black" d="M449.75,-140.8C605.53,-140.8 1133.75,-140.8 1133.75,-140.8 1133.75,-140.8 1133.75,-239.6 1133.75,-239.6"/>
<polygon fill="black" stroke="black" points="1130.25,-239.6 1133.75,-249.6 1137.25,-239.6 1130.25,-239.6"/>
</g>
<!-- LoginModule -->
<g id="node16" class="node">
<title>LoginModule</title>
<polygon fill="#8dd3c7" stroke="black" points="450.49,-220.8 447.49,-224.8 426.49,-224.8 423.49,-220.8 357.51,-220.8 357.51,-184.8 450.49,-184.8 450.49,-220.8"/>
<text text-anchor="middle" x="404" y="-198.6" font-family="Times,serif" font-size="14.00">LoginModule</text>
</g>
<!-- I18nModule&#45;&gt;LoginModule -->
<g id="edge22" class="edge">
<title>I18nModule&#45;&gt;LoginModule</title>
<path fill="none" stroke="black" d="M392.8,-153.02C392.8,-153.02 392.8,-174.53 392.8,-174.53"/>
<polygon fill="black" stroke="black" points="389.3,-174.53 392.8,-184.53 396.3,-174.53 389.3,-174.53"/>
</g>
<!-- LoginModule&#45;&gt;AppModule -->
<g id="edge15" class="edge">
<title>LoginModule&#45;&gt;AppModule</title>
<path fill="none" stroke="black" d="M404,-221.02C404,-241.17 404,-270.8 404,-270.8 404,-270.8 1083.07,-270.8 1083.07,-270.8"/>
<polygon fill="black" stroke="black" points="1083.07,-274.3 1093.07,-270.8 1083.07,-267.3 1083.07,-274.3"/>
</g>
<!-- WebSocketService -->
<g id="node19" class="node">
<title>WebSocketService</title>
<ellipse fill="#fdb462" stroke="black" cx="109" cy="-202.8" rx="84.51" ry="18"/>
<text text-anchor="middle" x="109" y="-198.6" font-family="Times,serif" font-size="14.00">WebSocketService</text>
</g>
<!-- WebSocketService&#45;&gt;AppModule -->
<g id="edge18" class="edge">
<title>WebSocketService&#45;&gt;AppModule</title>
<path fill="none" stroke="black" d="M109,-220.89C109,-243.93 109,-280.8 109,-280.8 109,-280.8 1083.19,-280.8 1083.19,-280.8"/>
<polygon fill="black" stroke="black" points="1083.19,-284.3 1093.19,-280.8 1083.19,-277.3 1083.19,-284.3"/>
</g>
<!-- LoginComponent -->
<g id="node20" class="node">
<title>LoginComponent</title>
<polygon fill="#ffffb3" stroke="black" points="2597.27,-152.8 2482.73,-152.8 2482.73,-116.8 2597.27,-116.8 2597.27,-152.8"/>
<text text-anchor="middle" x="2540" y="-130.6" font-family="Times,serif" font-size="14.00">LoginComponent</text>
</g>
<!-- LoginComponent&#45;&gt;LoginModule -->
<g id="edge19" class="edge">
<title>LoginComponent&#45;&gt;LoginModule</title>
<path fill="none" stroke="black" d="M2540,-152.99C2540,-161.08 2540,-168.8 2540,-168.8 2540,-168.8 421.2,-168.8 421.2,-168.8 421.2,-168.8 421.2,-174.61 421.2,-174.61"/>
<polygon fill="black" stroke="black" points="417.7,-174.61 421.2,-184.61 424.7,-174.61 417.7,-174.61"/>
</g>
<!-- RegisterComponent -->
<g id="node21" class="node">
<title>RegisterComponent</title>
<polygon fill="#ffffb3" stroke="black" points="2464.99,-152.8 2337.01,-152.8 2337.01,-116.8 2464.99,-116.8 2464.99,-152.8"/>
<text text-anchor="middle" x="2401" y="-130.6" font-family="Times,serif" font-size="14.00">RegisterComponent</text>
</g>
<!-- RegisterComponent&#45;&gt;LoginModule -->
<g id="edge21" class="edge">
<title>RegisterComponent&#45;&gt;LoginModule</title>
<path fill="none" stroke="black" d="M2336.77,-128.8C2000.94,-128.8 462.28,-128.8 462.28,-128.8 462.28,-128.8 462.28,-202.8 462.28,-202.8 462.28,-202.8 460.77,-202.8 460.77,-202.8"/>
<polygon fill="black" stroke="black" points="460.77,-199.3 450.77,-202.8 460.77,-206.3 460.77,-199.3"/>
</g>
<!-- LoginService -->
<g id="node22" class="node">
<title>LoginService</title>
<ellipse fill="#fdb462" stroke="black" cx="2534" cy="-66.8" rx="63.12" ry="18"/>
<text text-anchor="middle" x="2534" y="-62.6" font-family="Times,serif" font-size="14.00">LoginService</text>
</g>
<!-- LoginService&#45;&gt;LoginComponent -->
<g id="edge20" class="edge">
<title>LoginService&#45;&gt;LoginComponent</title>
<path fill="none" stroke="black" d="M2539.84,-85.02C2539.84,-85.02 2539.84,-106.53 2539.84,-106.53"/>
<polygon fill="black" stroke="black" points="2536.34,-106.53 2539.84,-116.53 2543.34,-106.53 2536.34,-106.53"/>
</g>
</g>
</svg>
